<svg xmlns="http://www.w3.org/2000/svg" viewBox="0 0 421.4 71.47"><defs><style>.cls-1{fill:#5f6369;}</style></defs><g id="Layer_2" data-name="Layer 2"><g id="Layer_2-2" data-name="Layer 2"><path class="cls-1" d="M75.55,4.75,71.8,1,68,4.71C67.86,4.89,40.75,32,40.48,32.27L17,55.72A33.07,33.07,0,0,1,10.67,36,33.07,33.07,0,0,1,17,16.36L33.21,32.54,56.64,9.11A5.34,5.34,0,0,0,52.87,0,5.26,5.26,0,0,0,49.1,1.56L33.21,17.45,16.73,1,13,4.75a44.25,44.25,0,0,0,0,62.58l3.77,3.77L48,39.81,71.47,16.36a33.58,33.58,0,0,1,0,39.35L55,39.28,32,62.36a5.34,5.34,0,0,0,7.54,7.55L55,54.37,71.77,71.1l3.77-3.77A44.3,44.3,0,0,0,75.55,4.75Z"/><path class="cls-1" d="M108.71,48a3.07,3.07,0,0,1-.84-2.25V17.54a2.89,2.89,0,0,1,3.07-3.07,3.08,3.08,0,0,1,2.28.84,3,3,0,0,1,.84,2.23V45.72a3.07,3.07,0,0,1-.84,2.25,3,3,0,0,1-2.28.87A3,3,0,0,1,108.71,48Z"/><path class="cls-1" d="M140.75,26.9c1.38,1.6,2.06,4,2.06,7.25V46a2.8,2.8,0,0,1-.79,2.11,3,3,0,0,1-2.18.77,3.1,3.1,0,0,1-2.21-.77,2.78,2.78,0,0,1-.82-2.11V34.48a6.2,6.2,0,0,0-1-4,4,4,0,0,0-3.24-1.25,5.5,5.5,0,0,0-4.15,1.63,6.07,6.07,0,0,0-1.56,4.37V46a2.77,2.77,0,0,1-.81,2.11,3.13,3.13,0,0,1-2.21.77,3,3,0,0,1-2.19-.77,2.8,2.8,0,0,1-.79-2.11V27.38a2.65,2.65,0,0,1,.82-2,3.08,3.08,0,0,1,2.2-.76,2.9,2.9,0,0,1,2.05.74,2.58,2.58,0,0,1,.79,1.94v1.3a8.1,8.1,0,0,1,3.21-3,9.64,9.64,0,0,1,4.56-1.06C137.28,24.5,139.37,25.3,140.75,26.9Z"/><path class="cls-1" d="M172.05,27.33V46a2.68,2.68,0,0,1-.84,2.13,3.1,3.1,0,0,1-2.14.75,3.19,3.19,0,0,1-2.16-.75,2.63,2.63,0,0,1-.86-2.13V29.59h-9.51V46a2.62,2.62,0,0,1-.84,2.11,3.16,3.16,0,0,1-2.13.72,3.24,3.24,0,0,1-2.16-.72,2.58,2.58,0,0,1-.87-2.11V29.59h-2.4c-1.79,0-2.69-.75-2.69-2.26s.9-2.25,2.69-2.25h2.4v-.24a10.09,10.09,0,0,1,2.38-7.08,9.75,9.75,0,0,1,6.69-3l1.11-.1a4.13,4.13,0,0,1,.72-.05c1.69,0,2.54.72,2.54,2.16a2.2,2.2,0,0,1-.57,1.63,2.53,2.53,0,0,1-1.59.68l-1,.09a4.59,4.59,0,0,0-3.22,1.37,5.16,5.16,0,0,0-1,3.43v1.11h12.82C171.15,25.08,172.05,25.83,172.05,27.33Zm-5.57-7.89a3,3,0,0,1-1-2.33,3,3,0,0,1,1-2.31,4.3,4.3,0,0,1,5.16,0,3,3,0,0,1,1,2.31,3,3,0,0,1-1,2.33,4.22,4.22,0,0,1-5.16,0Z"/><path class="cls-1" d="M198.21,26.9q2.06,2.4,2.06,7.25V46a2.8,2.8,0,0,1-.79,2.11,3,3,0,0,1-2.19.77,3.09,3.09,0,0,1-2.2-.77,2.74,2.74,0,0,1-.82-2.11V34.48a6.2,6.2,0,0,0-1-4A4,4,0,0,0,190,29.25a5.5,5.5,0,0,0-4.15,1.63,6.07,6.07,0,0,0-1.56,4.37V46a2.78,2.78,0,0,1-.82,2.11,3.1,3.1,0,0,1-2.21.77,3,3,0,0,1-2.18-.77,2.8,2.8,0,0,1-.79-2.11V27.38a2.67,2.67,0,0,1,.81-2,3.11,3.11,0,0,1,2.21-.76,2.89,2.89,0,0,1,2,.74,2.55,2.55,0,0,1,.79,1.94v1.3a8.06,8.06,0,0,1,3.22-3,9.59,9.59,0,0,1,4.56-1.06Q196.14,24.5,198.21,26.9Z"/><path class="cls-1" d="M206.75,19.44a3,3,0,0,1-1-2.33,3,3,0,0,1,1-2.31,4.3,4.3,0,0,1,5.16,0,2.92,2.92,0,0,1,1,2.31,3,3,0,0,1-1,2.33,4.25,4.25,0,0,1-5.18,0Zm.46,28.65a2.68,2.68,0,0,1-.84-2.13V27.43a2.62,2.62,0,0,1,.84-2.11,3.16,3.16,0,0,1,2.13-.72,3.24,3.24,0,0,1,2.16.72,2.58,2.58,0,0,1,.87,2.11V46a2.63,2.63,0,0,1-.87,2.13,3.16,3.16,0,0,1-2.16.75A3.08,3.08,0,0,1,207.21,48.09Z"/><path class="cls-1" d="M233.15,46.53a1.93,1.93,0,0,1-.94,1.75,4.48,4.48,0,0,1-2.66.51l-1.3-.1q-8.06-.57-8.06-8.64V29.59h-2.4a3,3,0,0,1-2-.58,2,2,0,0,1-.7-1.68,2.06,2.06,0,0,1,.7-1.68,3.06,3.06,0,0,1,2-.57h2.4V20.66A2.67,2.67,0,0,1,221,18.6a3.09,3.09,0,0,1,2.2-.77,3,3,0,0,1,2.16.77,2.67,2.67,0,0,1,.82,2.06v4.42h4.08a3.06,3.06,0,0,1,2,.57,2.06,2.06,0,0,1,.7,1.68,2,2,0,0,1-.7,1.68,3,3,0,0,1-2,.58h-4.08V40.48q0,3.56,3.26,3.8l1.3.09Q233.15,44.52,233.15,46.53Z"/><path class="cls-1" d="M254.05,25.05a2.65,2.65,0,0,1,1.42-.4,3,3,0,0,1,2,.74,2.33,2.33,0,0,1,.89,1.85,2.48,2.48,0,0,1-.29,1.1L245,55.8a2.7,2.7,0,0,1-2.55,1.63,2.93,2.93,0,0,1-1.94-.7,2.18,2.18,0,0,1-.84-1.75,3.16,3.16,0,0,1,.29-1.2l3.26-6.86-8.93-18.58a2.44,2.44,0,0,1-.24-1.1,2.38,2.38,0,0,1,.94-1.88,3.27,3.27,0,0,1,2.13-.76,2.82,2.82,0,0,1,1.49.4,2.78,2.78,0,0,1,1.06,1.28l6.72,14.83L253,26.32A2.88,2.88,0,0,1,254.05,25.05Z"/><path class="cls-1" d="M278.51,45.48Q275.11,42,275.1,35.3V16.48a2,2,0,0,1,.53-1.46,1.88,1.88,0,0,1,1.44-.55,1.83,1.83,0,0,1,1.39.55,2,2,0,0,1,.53,1.46V35.64q0,4.94,2.42,7.44c1.62,1.66,4,2.49,7.13,2.49s5.5-.83,7.1-2.49,2.4-4.15,2.4-7.44V16.48A2,2,0,0,1,298.6,15a2.12,2.12,0,0,1,2.85,0,2,2,0,0,1,.53,1.46V35.3q0,6.68-3.43,10.15t-10,3.48Q281.91,48.93,278.51,45.48Z"/><path class="cls-1" d="M326.7,26.13a10.22,10.22,0,0,1,3.65,4.3,15,15,0,0,1,1.29,6.41,14.68,14.68,0,0,1-1.29,6.36,9.58,9.58,0,0,1-9.07,5.68,9.34,9.34,0,0,1-4.78-1.19,7.77,7.77,0,0,1-3.1-3.41V55.56a1.81,1.81,0,0,1-.5,1.36,1.91,1.91,0,0,1-1.42.51A2,2,0,0,1,310,56.9a1.82,1.82,0,0,1-.52-1.34V26.61a1.89,1.89,0,0,1,.52-1.39,2,2,0,0,1,1.44-.53,1.89,1.89,0,0,1,1.42.53,1.91,1.91,0,0,1,.5,1.39V29.2a7.75,7.75,0,0,1,3.1-3.4,9.25,9.25,0,0,1,4.78-1.2A9.73,9.73,0,0,1,326.7,26.13Zm-.91,17.23a10.07,10.07,0,0,0,1.87-6.52,10.39,10.39,0,0,0-1.87-6.6,7.09,7.09,0,0,0-10.54-.07,10.26,10.26,0,0,0-1.85,6.57,10.39,10.39,0,0,0,1.85,6.6,6.34,6.34,0,0,0,5.26,2.33A6.42,6.42,0,0,0,325.79,43.36Z"/><path class="cls-1" d="M338,48.28a1.82,1.82,0,0,1-.55-1.41V16.39A1.86,1.86,0,0,1,338,15a2.05,2.05,0,0,1,1.42-.5,2,2,0,0,1,1.37.5,1.82,1.82,0,0,1,.55,1.42V46.87a1.79,1.79,0,0,1-.55,1.41,2,2,0,0,1-1.37.51A2,2,0,0,1,338,48.28Z"/><path class="cls-1" d="M352.45,47.4a10,10,0,0,1-3.89-4.25,14.3,14.3,0,0,1-1.36-6.41,14.3,14.3,0,0,1,1.36-6.41,10,10,0,0,1,3.89-4.25,11.28,11.28,0,0,1,5.83-1.48,11.42,11.42,0,0,1,5.86,1.48,9.94,9.94,0,0,1,3.91,4.25,14.3,14.3,0,0,1,1.37,6.41,14.3,14.3,0,0,1-1.37,6.41,9.88,9.88,0,0,1-3.91,4.25,11.42,11.42,0,0,1-5.86,1.48A11.28,11.28,0,0,1,352.45,47.4Zm11.14-4q1.85-2.28,1.85-6.65a10.27,10.27,0,0,0-1.88-6.6,7.15,7.15,0,0,0-10.56,0,10.27,10.27,0,0,0-1.87,6.6q0,4.32,1.85,6.62a7.28,7.28,0,0,0,10.61,0Z"/><path class="cls-1" d="M393.56,33.81V46.87a2,2,0,0,1-.5,1.39,1.81,1.81,0,0,1-1.37.53,1.82,1.82,0,0,1-1.92-1.92V44.56a6.85,6.85,0,0,1-2.78,3.2,8.23,8.23,0,0,1-4.32,1.12,9.46,9.46,0,0,1-4.16-.91,7.39,7.39,0,0,1-3-2.54,6.34,6.34,0,0,1-1.1-3.6,5.89,5.89,0,0,1,1.34-4.11,8.2,8.2,0,0,1,4.42-2.11,43.79,43.79,0,0,1,8.54-.65h1.06V33.38a6.26,6.26,0,0,0-1.18-4.22,4.8,4.8,0,0,0-3.81-1.35,14.1,14.1,0,0,0-6.62,1.78,4.45,4.45,0,0,1-1.83.81,1.23,1.23,0,0,1-1-.43,1.55,1.55,0,0,1-.38-1.1,1.83,1.83,0,0,1,.4-1.18,5.12,5.12,0,0,1,1.32-1,15.61,15.61,0,0,1,3.82-1.51,16.81,16.81,0,0,1,4.25-.55Q393.56,24.6,393.56,33.81Zm-5.64,10.06a7,7,0,0,0,1.85-5V37.46h-.86a43.12,43.12,0,0,0-6.44.36,6.27,6.27,0,0,0-3.14,1.2,3.17,3.17,0,0,0-.94,2.47,4,4,0,0,0,1.37,3.1,5,5,0,0,0,3.44,1.22A6.2,6.2,0,0,0,387.92,43.87Z"/><path class="cls-1" d="M420.87,15a1.79,1.79,0,0,1,.53,1.34V46.87a1.85,1.85,0,0,1-.53,1.39,2,2,0,0,1-1.44.53,1.86,1.86,0,0,1-1.41-.53,1.92,1.92,0,0,1-.51-1.39V44.28a7.69,7.69,0,0,1-3.09,3.41,9.34,9.34,0,0,1-4.78,1.19,9.71,9.71,0,0,1-5.42-1.53,10.09,10.09,0,0,1-3.65-4.3,15,15,0,0,1-1.3-6.4,14.68,14.68,0,0,1,1.3-6.34,9.6,9.6,0,0,1,9.07-5.71,9.25,9.25,0,0,1,4.78,1.2,7.67,7.67,0,0,1,3.09,3.4V16.34A1.84,1.84,0,0,1,418,15a1.93,1.93,0,0,1,1.41-.5A2,2,0,0,1,420.87,15Zm-5.2,28.34a10.39,10.39,0,0,0,1.84-6.6q0-4.27-1.84-6.57a6.36,6.36,0,0,0-5.26-2.31,6.47,6.47,0,0,0-5.3,2.31,9.88,9.88,0,0,0-1.9,6.48,10.35,10.35,0,0,0,1.9,6.64,7.1,7.1,0,0,0,10.56.05Z"/></g></g></svg>